<?xml version="1.0" encoding="UTF-8"?>
<svg id="Layer_2" data-name="Layer 2" xmlns="http://www.w3.org/2000/svg" width="956.29" height="298.49" viewBox="0 0 956.29 298.49">
  <defs>
    <style>
      .cls-1 {
        fill: #42555f;
      }

      .cls-2 {
        fill: #cdc1ad;
      }
    </style>
  </defs>
  <g id="Layer_1-2" data-name="Layer 1">
    <g>
      <path class="cls-2" d="M132.1,0C59.14,0,0,54.23,0,132.1h0v147.93h11.93v-147.93c0-33.87,12.46-64.66,35.09-86.7,22.15-21.58,52.36-33.46,85.08-33.46s62.99,11.43,85.27,32.19c22.5,20.96,34.89,49.92,34.89,81.55v142.43H40.24v-139.19c0-25.91,9.52-49.45,26.79-66.29,16.92-16.49,40.03-25.57,65.06-25.57s48.22,8.74,65.26,24.6c17.15,15.98,26.6,38.07,26.6,62.2v118.79H68.69v-111.37c0-19.78,6.67-37.69,18.78-50.43,11.63-12.24,27.48-18.98,44.63-18.98,36.15,0,63.41,28.13,63.41,65.44v90.51h-33.27c.79-.68,1.56-1.38,2.3-2.12,8.69-8.64,13.47-20.31,13.47-32.87,0-26.06-20.68-45.8-48.32-46.44v11.68c20.99.62,36.64,15.35,36.64,34.76s-15.43,34.79-35.89,34.79h-33.9v-69.58h21.21v-11.68h-21.21v-8.5c0-22.15,15.28-38.85,35.55-38.85s35.55,15.76,35.55,36.67h11.93c0-13.45-4.93-25.83-13.89-34.84-8.83-8.88-20.75-13.76-33.58-13.76-27.07,0-47.48,21.83-47.48,50.78v101.88h122.82v-102.44c0-45.06-33.73-77.37-75.34-77.37s-75.34,33.39-75.34,81.34h0v123.3h179.12V123.85c0-57.5-46.47-98.73-103.79-98.73S28.31,67.73,28.31,128.91h0v151.12h235.88V125.66C264.2,52.47,205.05,0,132.1,0Z"/>
      <g>
        <g>
          <path class="cls-1" d="M359.71,114.18c0,3.32.29,5.94.88,7.87.59,1.93,1.42,3.43,2.49,4.5,1.07,1.07,2.35,1.82,3.85,2.25,1.5.43,3.1.75,4.82.96h-36.92c1.82-.21,3.48-.53,4.98-.96,1.5-.43,2.75-1.18,3.77-2.25,1.02-1.07,1.82-2.57,2.41-4.5.59-1.93.88-4.55.88-7.87V32.95c0-3.32-.3-5.94-.88-7.87-.59-1.93-1.39-3.42-2.41-4.49-1.02-1.07-2.27-1.82-3.77-2.25-1.5-.43-3.16-.75-4.98-.96h68.22l4.66,27.29c-.43-1.28-1.04-3.37-1.85-6.26-.8-2.89-2.22-5.78-4.25-8.67-2.03-2.89-4.87-5.43-8.51-7.63-3.64-2.19-8.56-3.29-14.77-3.29h-18.62v51.05h21.03c2.57,0,4.63-.51,6.18-1.52,1.55-1.02,2.73-2.27,3.53-3.77.8-1.5,1.36-3.13,1.69-4.9.32-1.77.59-3.4.8-4.9v31.62c-.22-1.5-.48-3.1-.8-4.82-.32-1.71-.88-3.34-1.69-4.9-.8-1.55-1.98-2.83-3.53-3.85-1.55-1.02-3.61-1.52-6.18-1.52h-21.03v42.86Z"/>
          <path class="cls-1" d="M565.67,144.68c-3.64,1.07-7.6,1.93-11.88,2.57-4.28.64-8.78.96-13.48.96-5.14,0-10.33-.48-15.57-1.44-5.25-.96-10.3-2.57-15.17-4.82-4.87-2.25-9.45-5.27-13.73-9.07-4.28-3.8-8.03-8.53-11.24-14.21-4.07-7.17-7.63-12.84-10.68-17.02-3.05-4.17-6.24-6.26-9.55-6.26h-9.31v18.78c0,3.32.29,5.94.88,7.87.59,1.93,1.42,3.43,2.49,4.5,1.07,1.07,2.35,1.82,3.85,2.25,1.5.43,3.1.75,4.82.96h-36.92c1.82-.21,3.48-.53,4.98-.96,1.5-.43,2.75-1.18,3.77-2.25,1.02-1.07,1.82-2.57,2.41-4.5.59-1.93.88-4.55.88-7.87V32.95c0-3.32-.3-5.94-.88-7.87-.59-1.93-1.39-3.42-2.41-4.49-1.02-1.07-2.27-1.82-3.77-2.25-1.5-.43-3.16-.75-4.98-.96h34.19c8.56,0,15.76,1.77,21.59,5.3,5.83,3.53,10.3,8,13.4,13.4,3.1,5.41,4.82,11.34,5.14,17.82.32,6.48-.72,12.58-3.13,18.3-2.41,5.73-6.18,10.7-11.32,14.93-5.14,4.23-11.61,6.82-19.42,7.79,3.42.43,6.45,1.23,9.07,2.41,2.62,1.18,5,2.7,7.14,4.58,2.14,1.87,4.12,4.01,5.94,6.42,1.82,2.41,3.69,5.11,5.62,8.11,3.75,5.78,7.76,10.57,12.04,14.37,4.28,3.8,8.69,6.82,13.24,9.07,4.55,2.25,9.09,3.83,13.65,4.74,4.55.91,8.91,1.36,13.08,1.36,2.89,0,5.59-.19,8.11-.56,2.51-.38,4.84-.83,6.98-1.36l.16.64ZM455.06,93.95h9.31c5.99,0,11-1.85,15.01-5.54,4.01-3.69,7.04-8.32,9.07-13.89,2.03-5.56,3.05-11.61,3.05-18.14s-.99-12.57-2.97-18.14c-1.98-5.56-5-10.19-9.07-13.89-4.07-3.69-9.1-5.54-15.09-5.54h-.32c-1.61,0-3,.14-4.17.4-1.18.27-2.11.88-2.81,1.85-.7.96-1.2,2.33-1.52,4.09-.32,1.77-.48,4.15-.48,7.14v61.64Z"/>
          <path class="cls-1" d="M650.42,73.41c0,9.74-1.69,18.27-5.06,25.6-3.37,7.33-7.81,13.43-13.32,18.3-5.51,4.87-11.77,8.54-18.78,11-7.01,2.46-14.15,3.69-21.43,3.69s-14.58-1.23-21.59-3.69c-7.01-2.46-13.24-6.12-18.7-11-5.46-4.87-9.87-10.97-13.24-18.3-3.37-7.33-5.06-15.86-5.06-25.6s1.69-18.41,5.06-25.68c3.37-7.28,7.81-13.38,13.32-18.3,5.51-4.92,11.77-8.59,18.78-11,7.01-2.41,14.15-3.61,21.43-3.61s14.58,1.2,21.59,3.61c7.01,2.41,13.24,6.07,18.7,11,5.46,4.92,9.87,11.02,13.24,18.3,3.37,7.28,5.06,15.84,5.06,25.68ZM547.85,73.41c0,9.53,1.26,17.87,3.77,25.04,2.51,7.17,5.83,13.16,9.95,17.98,4.12,4.82,8.83,8.43,14.13,10.84,5.3,2.41,10.68,3.61,16.13,3.61s10.83-1.2,16.13-3.61c5.3-2.41,10.01-6.02,14.13-10.84,4.12-4.82,7.44-10.81,9.95-17.98,2.51-7.17,3.77-15.52,3.77-25.04s-1.26-18.03-3.77-25.2c-2.52-7.17-5.83-13.14-9.95-17.9-4.12-4.76-8.83-8.35-14.13-10.76-5.3-2.41-10.67-3.61-16.13-3.61s-10.84,1.2-16.13,3.61c-5.3,2.41-10.01,5.99-14.13,10.76-4.12,4.76-7.44,10.73-9.95,17.9-2.52,7.17-3.77,15.57-3.77,25.2Z"/>
          <path class="cls-1" d="M758.14,17.38c-3.53.54-6.42,2.94-8.67,7.22-2.25,4.28-3.37,9.74-3.37,16.37v90.86h-1.45l-57.15-101.29v75.61c0,6.64,1.1,12.09,3.29,16.37,2.19,4.28,5.06,6.69,8.59,7.22h-25.36c3.64-.53,6.55-2.94,8.75-7.22,2.19-4.28,3.29-9.74,3.29-16.37V39.05c0-6.63-.99-11.58-2.97-14.85-1.98-3.26-5-5.54-9.07-6.82h21.83l48.96,86.04v-62.45c0-6.63-1.12-12.09-3.37-16.37-2.25-4.28-5.14-6.69-8.67-7.22h25.36Z"/>
          <path class="cls-1" d="M824.11,114.18c0,3.32.29,5.94.88,7.87.59,1.93,1.39,3.43,2.41,4.5,1.02,1.07,2.27,1.82,3.77,2.25,1.5.43,3.1.75,4.82.96h-36.92c1.82-.21,3.48-.53,4.98-.96,1.5-.43,2.75-1.18,3.77-2.25,1.02-1.07,1.82-2.57,2.41-4.5.59-1.93.88-4.55.88-7.87V18.83h-.16c-6.21,0-11.13,1.1-14.77,3.29-3.64,2.19-6.48,4.74-8.51,7.63-2.03,2.89-3.45,5.78-4.25,8.67-.8,2.89-1.42,4.98-1.85,6.26l4.66-27.29h62.61l4.82,27.29c-.43-1.28-1.07-3.37-1.93-6.26-.86-2.89-2.27-5.78-4.25-8.67-1.98-2.89-4.82-5.43-8.51-7.63-3.69-2.19-8.59-3.29-14.69-3.29h-.16v95.35Z"/>
        </g>
        <g>
          <path class="cls-1" d="M449.35,167.65c8.77,0,16.43,1.6,22.96,4.82,6.53,3.21,11.96,7.44,16.29,12.68,4.33,5.24,7.6,11.24,9.79,17.98,2.19,6.74,3.29,13.62,3.29,20.63s-1.1,13.89-3.29,20.63c-2.19,6.74-5.46,12.76-9.79,18.06-4.33,5.3-9.77,9.55-16.29,12.76-6.53,3.21-14.18,4.82-22.96,4.82h-38.21c1.82-.21,3.48-.53,4.98-.96,1.5-.43,2.75-1.18,3.77-2.25,1.02-1.07,1.82-2.57,2.41-4.5.59-1.93.88-4.55.88-7.87v-81.23c0-3.32-.3-5.94-.88-7.87-.59-1.93-1.39-3.42-2.41-4.49-1.02-1.07-2.27-1.82-3.77-2.25-1.5-.43-3.16-.75-4.98-.96h38.21ZM436.03,265.09c0,2.89.13,5.19.4,6.9.27,1.71.83,3.05,1.69,4.01.85.96,2.19,1.63,4.01,2.01,1.82.38,4.23.56,7.22.56,6.31,0,11.85-1.52,16.61-4.58,4.76-3.05,8.75-7.12,11.96-12.2,3.21-5.08,5.62-10.84,7.22-17.26,1.61-6.42,2.46-13.03,2.57-19.83.11-6.79-.59-13.46-2.09-19.99-1.5-6.53-3.8-12.39-6.9-17.58-3.11-5.19-6.96-9.42-11.56-12.68-4.6-3.26-10.01-5.06-16.21-5.38-3.43,0-6.13.14-8.11.4-1.98.27-3.48.88-4.49,1.85-1.02.96-1.66,2.33-1.93,4.09-.27,1.77-.4,4.15-.4,7.14v82.51Z"/>
          <path class="cls-1" d="M649.53,223.68c0,9.74-1.69,18.27-5.06,25.6-3.37,7.33-7.81,13.43-13.32,18.3-5.51,4.87-11.77,8.54-18.78,11-7.01,2.46-14.15,3.69-21.43,3.69s-14.58-1.23-21.59-3.69c-7.01-2.46-13.24-6.12-18.7-11-5.46-4.87-9.87-10.97-13.24-18.3-3.37-7.33-5.06-15.86-5.06-25.6s1.69-18.41,5.06-25.68c3.37-7.28,7.81-13.38,13.32-18.3,5.51-4.92,11.77-8.59,18.78-11,7.01-2.41,14.15-3.61,21.43-3.61s14.58,1.2,21.59,3.61c7.01,2.41,13.24,6.07,18.7,11,5.46,4.92,9.87,11.02,13.24,18.3,3.37,7.28,5.06,15.84,5.06,25.68ZM546.95,223.68c0,9.53,1.26,17.87,3.77,25.04,2.51,7.17,5.83,13.16,9.95,17.98,4.12,4.82,8.83,8.43,14.13,10.84,5.3,2.41,10.68,3.61,16.13,3.61s10.83-1.2,16.13-3.61c5.3-2.41,10.01-6.02,14.13-10.84,4.12-4.82,7.44-10.81,9.95-17.98,2.51-7.17,3.77-15.52,3.77-25.04s-1.26-18.03-3.77-25.2c-2.52-7.17-5.83-13.14-9.95-17.9-4.12-4.76-8.83-8.35-14.13-10.76-5.3-2.41-10.67-3.61-16.13-3.61s-10.84,1.2-16.13,3.61c-5.3,2.41-10.01,5.99-14.13,10.76-4.12,4.76-7.44,10.73-9.95,17.9-2.52,7.17-3.77,15.57-3.77,25.2Z"/>
          <path class="cls-1" d="M797.37,223.68c0,9.74-1.69,18.27-5.06,25.6-3.37,7.33-7.81,13.43-13.32,18.3-5.51,4.87-11.77,8.54-18.78,11-7.01,2.46-14.15,3.69-21.43,3.69s-14.58-1.23-21.59-3.69c-7.01-2.46-13.24-6.12-18.7-11-5.46-4.87-9.87-10.97-13.24-18.3-3.37-7.33-5.06-15.86-5.06-25.6s1.69-18.41,5.06-25.68c3.37-7.28,7.81-13.38,13.32-18.3,5.51-4.92,11.77-8.59,18.78-11,7.01-2.41,14.15-3.61,21.43-3.61s14.58,1.2,21.59,3.61c7.01,2.41,13.24,6.07,18.7,11,5.46,4.92,9.87,11.02,13.24,18.3,3.37,7.28,5.06,15.84,5.06,25.68ZM694.79,223.68c0,9.53,1.26,17.87,3.77,25.04,2.51,7.17,5.83,13.16,9.95,17.98,4.12,4.82,8.83,8.43,14.13,10.84,5.3,2.41,10.68,3.61,16.13,3.61s10.83-1.2,16.13-3.61c5.3-2.41,10.01-6.02,14.13-10.84,4.12-4.82,7.44-10.81,9.95-17.98,2.51-7.17,3.77-15.52,3.77-25.04s-1.26-18.03-3.77-25.2c-2.52-7.17-5.83-13.14-9.95-17.9-4.12-4.76-8.83-8.35-14.13-10.76-5.3-2.41-10.67-3.61-16.13-3.61s-10.84,1.2-16.13,3.61c-5.3,2.41-10.01,5.99-14.13,10.76-4.12,4.76-7.44,10.73-9.95,17.9-2.52,7.17-3.77,15.57-3.77,25.2Z"/>
          <path class="cls-1" d="M956.29,294.95c-3.64,1.07-7.6,1.93-11.88,2.57-4.28.64-8.78.96-13.48.96-5.14,0-10.33-.48-15.57-1.44-5.25-.96-10.3-2.57-15.17-4.82-4.87-2.25-9.45-5.27-13.73-9.07-4.28-3.8-8.03-8.53-11.24-14.21-4.07-7.17-7.63-12.84-10.68-17.02s-6.24-6.26-9.55-6.26h-9.31v18.78c0,3.32.29,5.94.88,7.87.59,1.93,1.42,3.43,2.49,4.5,1.07,1.07,2.35,1.82,3.85,2.25,1.5.43,3.1.75,4.82.96h-36.92c1.82-.21,3.48-.53,4.98-.96,1.5-.43,2.75-1.18,3.77-2.25,1.02-1.07,1.82-2.57,2.41-4.5.59-1.93.88-4.55.88-7.87v-81.23c0-3.32-.3-5.94-.88-7.87-.59-1.93-1.39-3.42-2.41-4.49-1.02-1.07-2.27-1.82-3.77-2.25-1.5-.43-3.16-.75-4.98-.96h34.19c8.56,0,15.76,1.77,21.59,5.3,5.83,3.53,10.3,8,13.4,13.4,3.1,5.41,4.82,11.34,5.14,17.82.32,6.48-.72,12.58-3.13,18.3-2.41,5.73-6.18,10.7-11.32,14.93-5.14,4.23-11.61,6.82-19.42,7.79,3.42.43,6.45,1.23,9.07,2.41,2.62,1.18,5,2.7,7.14,4.58,2.14,1.87,4.12,4.01,5.94,6.42,1.82,2.41,3.69,5.11,5.62,8.11,3.75,5.78,7.76,10.57,12.04,14.37,4.28,3.8,8.69,6.82,13.24,9.07,4.55,2.25,9.09,3.83,13.65,4.74,4.55.91,8.91,1.36,13.08,1.36,2.89,0,5.59-.19,8.11-.56,2.51-.38,4.84-.83,6.98-1.36l.16.64ZM845.69,244.23h9.31c5.99,0,11-1.85,15.01-5.54,4.01-3.69,7.04-8.32,9.07-13.89,2.03-5.56,3.05-11.61,3.05-18.14s-.99-12.57-2.97-18.14c-1.98-5.56-5-10.19-9.07-13.89-4.07-3.69-9.1-5.54-15.09-5.54h-.32c-1.61,0-3,.14-4.17.4-1.18.27-2.11.88-2.81,1.85-.7.96-1.2,2.33-1.52,4.09-.32,1.77-.48,4.15-.48,7.14v61.64Z"/>
        </g>
      </g>
    </g>
  </g>
</svg>